<svg xmlns="http://www.w3.org/2000/svg" viewBox="0 0 162.59 156"><defs><style>.cls-1{fill:none;stroke:#1d1d1b;stroke-miterlimit:10;stroke-width:2px;}.cls-2{font-size:9px;font-family:FONTSPRINGDEMO-BalginExtraLightRegular, FONTSPRING DEMO - Balgin Extra Light;font-weight:200;letter-spacing:0.1em;}.cls-2,.cls-5{fill:#1d1d1b;}.cls-3{letter-spacing:0.07em;}.cls-4{letter-spacing:0.1em;}</style></defs><title>Plan de travail 1</title><g id="Calque_4" data-name="Calque 4"><rect class="cls-1" x="68.97" y="73.32" width="33.89" height="11.87" rx="5.93"/><path class="cls-1" d="M98.44,46.15a4.24,4.24,0,0,1-8.18,0H82.15l6.6,27.17h11.34l6-27.17Z"/><rect class="cls-1" x="71.05" y="84.69" width="3.6" height="19.23" rx="1.8" transform="translate(38.66 -19.85) rotate(21.01)"/><rect class="cls-1" x="97.34" y="84.69" width="3.6" height="19.23" rx="1.8" transform="translate(225.51 146.79) rotate(158.99)"/></g><g id="Calque_2" data-name="Calque 2"><rect class="cls-1" x="7.71" y="103.52" width="147.56" height="4.35" rx="2.18"/><path class="cls-1" d="M36.07,103.58a59.41,59.41,0,1,1,90.32,0h5.78a63.7,63.7,0,1,0-101.35,0Z"/><g id="Calque_3" data-name="Calque 3"><line class="cls-1" x1="48.86" y1="91.91" x2="54.99" y2="103.52"/><line class="cls-1" x1="55.09" y1="91.91" x2="55.09" y2="103.52"/><circle class="cls-1" cx="35.28" cy="67.69" r="0.8"/></g><path class="cls-1" d="M48,72.63H22.32a58.89,58.89,0,0,0,6,19.28h30.2a2.84,2.84,0,0,0,2.84-2.83V65H48Z"/><path class="cls-1" d="M28,65H21.82a60,60,0,0,0,.5,7.62H48V65H42.56"/><path class="cls-1" d="M138.51,49.27H118.22a2.45,2.45,0,0,1-2.44-2.44V16.7c-1.37-1-2.77-1.91-4.22-2.77V50.7A2.44,2.44,0,0,0,114,53.14h25.45C139.18,51.83,138.86,50.55,138.51,49.27Z"/><path class="cls-1" d="M42.6,64.22a7.32,7.32,0,0,0-14.64,0A6.84,6.84,0,0,0,28,65H42.56A6.85,6.85,0,0,0,42.6,64.22Z"/><circle class="cls-1" cx="34.9" cy="46.96" r="2.32"/><path class="cls-1" d="M49.83,32.48a7.31,7.31,0,0,0-5.48,12.16l10.74-9.92A7.29,7.29,0,0,0,49.83,32.48Z"/><line class="cls-1" x1="36.09" y1="44.98" x2="42.6" y2="38.69"/><line class="cls-1" x1="34.9" y1="49.27" x2="35.28" y2="56.9"/><line class="cls-1" x1="47.08" y1="42.45" x2="48.8" y2="48.49"/><line class="cls-1" x1="50.12" y1="39.91" x2="54.6" y2="44.64"/><line class="cls-1" x1="52.56" y1="37.05" x2="58.52" y2="38.78"/></g><g id="Calque_5" data-name="Calque 5"><text class="cls-2" transform="translate(38.57 153.63)">F U R N I<tspan class="cls-3" x="44.88" y="0"> </tspan><tspan class="cls-4" x="47.9" y="0">T U R E</tspan></text><path class="cls-5" d="M3.84,120.42l-.3,2.11-2-.43a.59.59,0,0,1-.33-.19.61.61,0,0,1-.11-.38v-1.11Zm4.4,19.36L2.19,120.42H4.38a.91.91,0,0,1,.58.18.81.81,0,0,1,.31.44l4,13.45a5.08,5.08,0,0,1,.2.79c0,.28.09.58.15.88.14-.66.24-1.1.29-1.29s.09-.33.11-.38L14.58,121a1.26,1.26,0,0,1,.31-.42.9.9,0,0,1,.59-.2h.75a.86.86,0,0,1,.89.62l4.51,13.45a5.08,5.08,0,0,1,.23.75l.2.87c.08-.4.14-.73.19-1s.1-.49.14-.61l4-13.45a1,1,0,0,1,.31-.43.82.82,0,0,1,.55-.19h2.06l-6,19.36H20.93L16,125c0-.14-.08-.3-.13-.46a3.8,3.8,0,0,1-.14-.51s-.06.21-.12.46a3.45,3.45,0,0,1-.15.51l-4.91,14.77ZM3.68,121.1v-.68h2v.68Zm3.86-.68v1.11a.61.61,0,0,1-.11.38.6.6,0,0,1-.32.19l-2,.43-.3-2.11Zm19.33,0-.3,2.11-2-.43a.59.59,0,0,1-.33-.19.61.61,0,0,1-.1-.38v-1.11Zm-.7.68v-.68h2v.68Zm4.4-.68v1.11a.61.61,0,0,1-.11.38.6.6,0,0,1-.32.19l-2,.43-.3-2.11Z"/><path class="cls-5" d="M35.24,120.42l-.3,2.11-2-.43a.59.59,0,0,1-.33-.19.61.61,0,0,1-.1-.38v-1.11Zm-2.75,19.36v-1.11a.67.67,0,0,1,.1-.39.41.41,0,0,1,.33-.17l2-.44.3,2.11Zm1.94,0V120.42H46.36v2.13H37.08V129H44.2v2.05H37.08v6.59h9.28v2.13Zm9.72-17.9,2.21.67V125H45.12a.69.69,0,0,1-.36-.09.56.56,0,0,1-.21-.34Zm0,16.44.4-2.7a.56.56,0,0,1,.21-.34.69.69,0,0,1,.36-.09h1.24v2.46Z"/><path class="cls-5" d="M51.9,120.42l-.3,2.11-2-.43a.59.59,0,0,1-.33-.19.61.61,0,0,1-.11-.38v-1.11Zm-2.76,19.36v-1.11a.67.67,0,0,1,.11-.39.41.41,0,0,1,.33-.17l2-.44.3,2.11Zm2,0V120.42h6.18A10.68,10.68,0,0,1,61,121a4.69,4.69,0,0,1,2.29,1.69,4.8,4.8,0,0,1,.76,2.79,4.16,4.16,0,0,1-1.63,3.36,5.93,5.93,0,0,1-2,1,6,6,0,0,1,3.18,1.54,4,4,0,0,1,1.08,2.91,5.12,5.12,0,0,1-.83,2.93,5.52,5.52,0,0,1-2.35,1.91,8.78,8.78,0,0,1-3.59.67Zm2.62-10.69h3.45a6.22,6.22,0,0,0,2.34-.39A3.15,3.15,0,0,0,61,127.56a3,3,0,0,0,.51-1.77,3,3,0,0,0-1-2.49,5.22,5.22,0,0,0-3.19-.8H53.71Zm0,8.61h4.18a4.76,4.76,0,0,0,3.19-.93,3.22,3.22,0,0,0,1.08-2.58,2.89,2.89,0,0,0-1.07-2.36,4.93,4.93,0,0,0-3.2-.88H53.71Z"/><path class="cls-5" d="M69.31,120.42,69,122.53l-2-.43a.6.6,0,0,1-.32-.19.56.56,0,0,1-.11-.38v-1.11Zm4.4,19.36-6-19.36h2.18a.89.89,0,0,1,.58.18.77.77,0,0,1,.31.44l4,13.45a4.16,4.16,0,0,1,.2.79c0,.28.1.58.15.88.14-.66.24-1.1.3-1.29a3.71,3.71,0,0,1,.11-.38L80.06,121a1.14,1.14,0,0,1,.31-.42.87.87,0,0,1,.58-.2h.76a.87.87,0,0,1,.89.62l4.51,13.45a6.65,6.65,0,0,1,.23.75l.2.87c.07-.4.13-.73.19-1s.1-.49.13-.61l4-13.45a1,1,0,0,1,.32-.43.8.8,0,0,1,.55-.19h2l-6,19.36H86.4L81.52,125c0-.14-.08-.3-.14-.46a3.8,3.8,0,0,1-.13-.51s-.06.21-.12.46-.12.42-.15.51l-4.92,14.77ZM69.15,121.1v-.68h2v.68Zm3.86-.68v1.11a.56.56,0,0,1-.11.38.6.6,0,0,1-.32.19l-2,.43-.3-2.11Zm19.33,0-.29,2.11-2-.43a.6.6,0,0,1-.32-.19.61.61,0,0,1-.11-.38v-1.11Zm-.7.68v-.68h2v.68Zm4.4-.68v1.11a.56.56,0,0,1-.11.38.6.6,0,0,1-.32.19l-2,.43-.3-2.11Z"/><path class="cls-5" d="M92.83,139.78v-1.11a.67.67,0,0,1,.11-.39.41.41,0,0,1,.32-.17l2-.44.29,2.11Zm.78,0,7.75-19.36H104l7.75,19.36h-2a.94.94,0,0,1-.57-.17,1.12,1.12,0,0,1-.32-.45l-5.59-14.45c-.09-.25-.18-.52-.28-.82s-.2-.62-.29-1c-.1.36-.2.69-.29,1s-.18.59-.27.84l-5.59,14.42a.91.91,0,0,1-.31.43.86.86,0,0,1-.58.19Zm2,0v-1.67H97v1.67Zm.11,0,.3-2.11,2,.44a.45.45,0,0,1,.33.17.67.67,0,0,1,.1.39v1.11ZM98,134.06l.73-1.89h8l.73,1.89Zm8.89,5.72v-1.11a.67.67,0,0,1,.1-.39.43.43,0,0,1,.33-.17l2-.44.3,2.11Zm1.51,0v-1.67h1.43v1.67Zm1.38,0,.29-2.11,2,.44a.41.41,0,0,1,.32.17.67.67,0,0,1,.11.39v1.11Z"/><path class="cls-5" d="M117.21,120.42l-.3,2.11-2-.43a.63.63,0,0,1-.33-.19.61.61,0,0,1-.1-.38v-1.11Zm-2.75,19.36v-1.11a.67.67,0,0,1,.1-.39.43.43,0,0,1,.33-.17l2-.44.3,2.11Zm1.94,0V120.42h5.51a10.6,10.6,0,0,1,3.86.61,5,5,0,0,1,2.39,1.79,5.12,5.12,0,0,1,.82,3,5.16,5.16,0,0,1-2.22,4.38,7.57,7.57,0,0,1-2.53,1.11,2.79,2.79,0,0,1,.86.81l5.65,7.69h-2.32a1.13,1.13,0,0,1-1.06-.57l-5-6.91a1.55,1.55,0,0,0-.51-.46,1.89,1.89,0,0,0-.81-.13h-2v8.07Zm1.84,0,.29-2.11,2,.44a.41.41,0,0,1,.32.17.67.67,0,0,1,.11.39v1.11Zm.81-10h2.72a5.31,5.31,0,0,0,3.43-1,3.38,3.38,0,0,0,1.24-2.81,3.07,3.07,0,0,0-1.14-2.6,5.51,5.51,0,0,0-3.39-.88h-2.86Zm9.42,10-1.3-2.46,1.6.35Zm0,0,.3-2.11,2,.44a.43.43,0,0,1,.33.17.67.67,0,0,1,.1.39v1.11Z"/><path class="cls-5" d="M135.89,120.42l-.29,2.11-2-.43a.6.6,0,0,1-.32-.19.61.61,0,0,1-.11-.38v-1.11Zm-2.75,19.36v-1.11a.67.67,0,0,1,.11-.39.41.41,0,0,1,.32-.17l2-.44.29,2.11Zm1.94,0V120.42H147v2.13h-9.29V129h7.13v2.05h-7.13v6.59H147v2.13Zm9.73-17.9,2.21.67V125h-1.24a.7.7,0,0,1-.37-.09.55.55,0,0,1-.2-.34Zm0,16.44.4-2.7a.55.55,0,0,1,.2-.34.7.7,0,0,1,.37-.09H147v2.46Z"/><path class="cls-5" d="M155.79,140a12.56,12.56,0,0,1-2.09-.18c-.71-.12-1.37-.26-2-.42s-1.08-.3-1.44-.43v-2.4l2.07.51a14.75,14.75,0,0,0,1.88.57,8.48,8.48,0,0,0,1.77.16,4.64,4.64,0,0,0,2.09-.43,3.22,3.22,0,0,0,1.85-3,2.69,2.69,0,0,0-.4-1.54,3.14,3.14,0,0,0-1.08-1,8.55,8.55,0,0,0-1.5-.62c-.55-.17-1.11-.35-1.69-.55a14.29,14.29,0,0,1-2.17-1,4.82,4.82,0,0,1-1.74-1.52,4.35,4.35,0,0,1-.68-2.55,5.47,5.47,0,0,1,.74-2.84,5.18,5.18,0,0,1,2.1-1.94,6.78,6.78,0,0,1,3.18-.7,13.08,13.08,0,0,1,2.58.28,13.78,13.78,0,0,1,2.69.82v2l-2.06-.4a13.11,13.11,0,0,0-1.71-.38,9.84,9.84,0,0,0-1.5-.14,3.92,3.92,0,0,0-2.62.83,2.64,2.64,0,0,0-1,2.12,2.23,2.23,0,0,0,.69,1.75,5.19,5.19,0,0,0,1.75,1l2.2.78a13.78,13.78,0,0,1,2.33,1,4.73,4.73,0,0,1,1.68,1.55,4.5,4.5,0,0,1,.64,2.55,6,6,0,0,1-.8,3.07,5.52,5.52,0,0,1-2.27,2.14A7.36,7.36,0,0,1,155.79,140Zm-3.29-2.76-2.21-.67v-2.46h1.24a.79.79,0,0,1,.38.09.43.43,0,0,1,.18.34Zm7.26-14.6,2.22.67v2.46h-1.25a.61.61,0,0,1-.36-.1.46.46,0,0,1-.2-.33Z"/></g></svg>