<svg xmlns="http://www.w3.org/2000/svg" viewBox="0 0 150.07 109.63"><defs><style>.cls-1{fill:none;stroke:#1d1d1b;stroke-miterlimit:10;stroke-width:2px;}</style></defs><title>Plan de travail 1</title><g id="Calque_4" data-name="Calque 4"><rect class="cls-1" x="62.64" y="73.32" width="33.89" height="11.87" rx="5.93"/><path class="cls-1" d="M92.11,46.15a4.24,4.24,0,0,1-8.18,0H75.82l6.6,27.17H93.76l6-27.17Z"/><rect class="cls-1" x="64.72" y="84.69" width="3.6" height="19.23" rx="1.8" transform="translate(38.24 -17.58) rotate(21.01)"/><rect class="cls-1" x="91.01" y="84.69" width="3.6" height="19.23" rx="1.8" transform="translate(213.27 149.06) rotate(158.99)"/></g><g id="Calque_2" data-name="Calque 2"><rect class="cls-1" x="1.38" y="103.52" width="147.56" height="4.35" rx="2.18"/><path class="cls-1" d="M29.74,103.58a59.41,59.41,0,1,1,90.32,0h5.78a63.7,63.7,0,1,0-101.35,0Z"/><g id="Calque_3" data-name="Calque 3"><line class="cls-1" x1="42.53" y1="91.91" x2="48.66" y2="103.52"/><line class="cls-1" x1="48.76" y1="91.91" x2="48.76" y2="103.52"/><circle class="cls-1" cx="28.95" cy="67.69" r="0.8"/></g><path class="cls-1" d="M41.64,72.63H16a58.89,58.89,0,0,0,6,19.28h30.2A2.84,2.84,0,0,0,55,89.08V65H41.64Z"/><path class="cls-1" d="M21.68,65H15.49a60,60,0,0,0,.5,7.62H41.64V65H36.23"/><path class="cls-1" d="M132.18,49.27H111.89a2.45,2.45,0,0,1-2.44-2.44V16.7c-1.37-1-2.77-1.91-4.22-2.77V50.7a2.44,2.44,0,0,0,2.44,2.44h25.45C132.85,51.83,132.53,50.55,132.18,49.27Z"/><path class="cls-1" d="M36.27,64.22a7.32,7.32,0,0,0-14.64,0,6.84,6.84,0,0,0,.05.79H36.23A6.85,6.85,0,0,0,36.27,64.22Z"/><circle class="cls-1" cx="28.57" cy="46.96" r="2.32"/><path class="cls-1" d="M43.5,32.48A7.31,7.31,0,0,0,38,44.64l10.74-9.92A7.29,7.29,0,0,0,43.5,32.48Z"/><line class="cls-1" x1="29.76" y1="44.98" x2="36.27" y2="38.69"/><line class="cls-1" x1="28.57" y1="49.27" x2="28.95" y2="56.9"/><line class="cls-1" x1="40.75" y1="42.45" x2="42.47" y2="48.49"/><line class="cls-1" x1="43.79" y1="39.91" x2="48.27" y2="44.64"/><line class="cls-1" x1="46.23" y1="37.05" x2="52.19" y2="38.78"/></g></svg>